<svg width="30" height="24" viewBox="0 0 30 24" fill="none" xmlns="http://www.w3.org/2000/svg">
<path d="M29.4001 6.27135V19.1C29.4001 20.2934 28.926 21.438 28.0821 22.2819C27.2382 23.1258 26.0936 23.6 24.9001 23.6H5.1001C3.90662 23.6 2.76203 23.1258 1.91812 22.2819C1.0742 21.438 0.600098 20.2934 0.600098 19.1V6.27135L14.5429 14.4758C14.6814 14.5574 14.8393 14.6005 15.0001 14.6005C15.1609 14.6005 15.3188 14.5574 15.4573 14.4758L29.4001 6.27135ZM24.9001 0.199951C26.0074 0.199777 27.0758 0.607843 27.9011 1.34608C28.7263 2.08432 29.2504 3.10091 29.3731 4.20135L15.0001 12.656L0.627098 4.20135C0.749783 3.10091 1.27388 2.08432 2.09913 1.34608C2.92438 0.607843 3.99283 0.199777 5.1001 0.199951H24.9001Z" fill="white"/>
</svg>
