<svg width="35" height="28" viewBox="0 0 35 28" fill="none" xmlns="http://www.w3.org/2000/svg">
<path d="M34.4645 3.40562C33.212 3.96062 31.8665 4.33562 30.452 4.50512C31.9115 3.6318 33.0034 2.25731 33.524 0.638116C32.1528 1.4526 30.652 2.02591 29.087 2.33312C28.0346 1.20941 26.6406 0.464605 25.1215 0.214326C23.6024 -0.0359518 22.0432 0.222303 20.6859 0.948995C19.3286 1.67569 18.2492 2.83016 17.6152 4.23317C16.9813 5.63618 16.8283 7.20924 17.18 8.70812C14.4015 8.56861 11.6835 7.84644 9.20215 6.58847C6.72085 5.33051 4.53178 3.56486 2.77702 1.40612C2.17702 2.44112 1.83202 3.64112 1.83202 4.91912C1.83135 6.06961 2.11467 7.20248 2.65684 8.21721C3.199 9.23195 3.98326 10.0972 4.94002 10.7361C3.83043 10.7008 2.74533 10.401 1.77502 9.86162V9.95161C1.77491 11.5652 2.33307 13.1292 3.35479 14.3781C4.37652 15.627 5.79887 16.484 7.38052 16.8036C6.35119 17.0822 5.27202 17.1232 4.22452 16.9236C4.67076 18.312 5.54001 19.5262 6.71057 20.396C7.88113 21.2659 9.29439 21.7479 10.7525 21.7746C8.27727 23.7177 5.22035 24.7717 2.07352 24.7671C1.51609 24.7673 0.959132 24.7347 0.405518 24.6696C3.59973 26.7234 7.31803 27.8133 11.1155 27.8091C23.9705 27.8091 30.998 17.1621 30.998 7.92812C30.998 7.62812 30.9905 7.32512 30.977 7.02512C32.344 6.03658 33.5239 4.81246 34.4615 3.41012L34.4645 3.40562V3.40562Z" fill="white"/>
</svg>
