<svg width="27" height="22" viewBox="0 0 27 22" fill="none" xmlns="http://www.w3.org/2000/svg">
<g clip-path="url(#clip0_74_98)">
<rect x="0.547119" y="0.0705872" width="26.1103" height="21.9176" rx="10.9588" fill="black"/>
<path d="M21.4226 3.17844H5.78158C5.02898 3.17844 4.41673 3.69207 4.41673 4.32345V17.7355C4.41673 18.3671 5.02861 18.881 5.78158 18.881H21.4226C22.175 18.881 22.7872 18.3674 22.7872 17.7355V4.32345C22.7868 3.69207 22.175 3.17844 21.4226 3.17844ZM16.707 13.753H14.0759V8.75766L11.7874 11.8056L9.50795 8.75766V13.7533H6.88452V4.88521H9.50795L11.7874 7.93314L14.0759 4.88521H16.707V13.753ZM23.9819 0.0705872H3.22214C1.86811 0.0705872 0.77002 0.992296 0.77002 2.12875V19.9296C0.77002 21.0665 1.86811 21.9882 3.22214 21.9882H23.9822C25.3362 21.9882 26.4344 21.0665 26.4344 19.9296V2.12875C26.4344 0.992296 25.3362 0.0705872 23.9819 0.0705872ZM23.7539 17.7355C23.7539 18.8142 22.7081 19.6925 21.4226 19.6925H5.78158C4.49626 19.6925 3.4501 18.8146 3.4501 17.7355V4.32345C3.4501 3.24489 4.49589 2.36666 5.78158 2.36666H21.4226C22.7077 2.36666 23.7539 3.24453 23.7539 4.32345V17.7355Z" fill="white"/>
</g>
<defs>
<clipPath id="clip0_74_98">
<rect x="0.547119" y="0.0705872" width="26.1103" height="21.9176" rx="10.9588" fill="white"/>
</clipPath>
</defs>
</svg>
