<svg width="30" height="30" viewBox="0 0 30 30" fill="none" xmlns="http://www.w3.org/2000/svg">
<path d="M14.9999 10.3137C12.4195 10.3137 10.3136 12.4195 10.3136 15C10.3136 17.5805 12.4195 19.6863 14.9999 19.6863C17.5804 19.6863 19.6863 17.5805 19.6863 15C19.6863 12.4195 17.5804 10.3137 14.9999 10.3137ZM29.0554 15C29.0554 13.0594 29.073 11.1363 28.964 9.19924C28.855 6.94924 28.3417 4.95236 26.6964 3.30705C25.0476 1.65822 23.0542 1.14846 20.8042 1.03947C18.8636 0.930489 16.9406 0.948067 15.0034 0.948067C13.0628 0.948067 11.1398 0.930489 9.20266 1.03947C6.95266 1.14846 4.95578 1.66174 3.31047 3.30705C1.66164 4.95588 1.15188 6.94924 1.04289 9.19924C0.933907 11.1399 0.951485 13.0629 0.951485 15C0.951485 16.9371 0.933907 18.8637 1.04289 20.8008C1.15188 23.0508 1.66516 25.0477 3.31047 26.693C4.9593 28.3418 6.95266 28.8516 9.20266 28.9606C11.1433 29.0695 13.0663 29.052 15.0034 29.052C16.9441 29.052 18.8671 29.0695 20.8042 28.9606C23.0542 28.8516 25.0511 28.3383 26.6964 26.693C28.3453 25.0442 28.855 23.0508 28.964 20.8008C29.0765 18.8637 29.0554 16.9406 29.0554 15V15ZM14.9999 22.2106C11.0097 22.2106 7.78938 18.9902 7.78938 15C7.78938 11.0098 11.0097 7.78947 14.9999 7.78947C18.9902 7.78947 22.2105 11.0098 22.2105 15C22.2105 18.9902 18.9902 22.2106 14.9999 22.2106ZM22.5058 9.17814C21.5742 9.17814 20.8218 8.4258 20.8218 7.49416C20.8218 6.56252 21.5742 5.81017 22.5058 5.81017C23.4374 5.81017 24.1898 6.56252 24.1898 7.49416C24.1901 7.71538 24.1467 7.93448 24.0622 8.13892C23.9776 8.34336 23.8536 8.52911 23.6972 8.68553C23.5407 8.84196 23.355 8.96599 23.1506 9.05052C22.9461 9.13505 22.727 9.17842 22.5058 9.17814V9.17814Z" fill="white"/>
</svg>
