<svg width="36" height="36" viewBox="0 0 36 36" fill="none" xmlns="http://www.w3.org/2000/svg">
<path d="M16.0616 1.25357L11.6672 10.5641L1.83343 12.0628C1.43669 12.1255 1.06457 12.3026 0.758942 12.5741C0.453316 12.8457 0.226316 13.2009 0.103488 13.5999C-0.0193397 13.9989 -0.0331215 14.4258 0.0636939 14.8325C0.160509 15.2392 0.364079 15.6096 0.651496 15.9021L7.76677 23.1436L6.08369 33.3726C6.01621 33.786 6.06068 34.2108 6.21208 34.5991C6.36349 34.9874 6.6158 35.3238 6.94054 35.5703C7.26528 35.8168 7.64952 35.9635 8.04989 35.994C8.45026 36.0245 8.85083 35.9375 9.20637 35.7429L18.0047 30.9135L26.8031 35.7429C27.1586 35.9375 27.5592 36.0245 27.9596 35.994C28.3599 35.9635 28.7442 35.8168 29.0689 35.5703C29.3937 35.3238 29.646 34.9874 29.7974 34.5991C29.9488 34.2108 29.9932 33.786 29.9258 33.3726L28.2332 23.1412L35.3485 15.8996C35.6359 15.6072 35.8395 15.2367 35.9363 14.83C36.0331 14.4233 36.0193 13.9964 35.8965 13.5975C35.7737 13.1985 35.5467 12.8432 35.2411 12.5717C34.9354 12.3001 34.5633 12.123 34.1666 12.0603L24.3328 10.5617L19.9266 1.25357C19.7484 0.877223 19.473 0.560407 19.1315 0.338895C18.79 0.117383 18.3961 0 17.9941 0C17.5921 0 17.1981 0.117383 16.8567 0.338895C16.5152 0.560407 16.2398 0.877223 16.0616 1.25357Z" fill="#B1B1B1"/>
<g clip-path="url(#clip0_381_205)">
<path d="M16.0616 1.25357L11.6672 10.5641L1.83343 12.0628C1.43669 12.1255 1.06457 12.3026 0.758942 12.5741C0.453316 12.8457 0.226316 13.2009 0.103488 13.5999C-0.0193397 13.9989 -0.0331215 14.4258 0.0636939 14.8325C0.160509 15.2392 0.364079 15.6096 0.651496 15.9021L7.76677 23.1436L6.08369 33.3726C6.01621 33.786 6.06068 34.2108 6.21208 34.5991C6.36349 34.9874 6.6158 35.3238 6.94054 35.5703C7.26528 35.8168 7.64952 35.9635 8.04989 35.994C8.45026 36.0245 8.85083 35.9375 9.20637 35.7429L18.0047 30.9135L26.8031 35.7429C27.1586 35.9375 27.5592 36.0245 27.9596 35.994C28.3599 35.9635 28.7442 35.8168 29.0689 35.5703C29.3937 35.3238 29.646 34.9874 29.7974 34.5991C29.9488 34.2108 29.9932 33.786 29.9258 33.3726L28.2332 23.1412L35.3485 15.8996C35.6359 15.6072 35.8395 15.2367 35.9363 14.83C36.0331 14.4233 36.0193 13.9964 35.8965 13.5975C35.7737 13.1985 35.5467 12.8432 35.2411 12.5717C34.9354 12.3001 34.5633 12.123 34.1666 12.0603L24.3328 10.5617L19.9266 1.25357C19.7484 0.877223 19.473 0.560407 19.1315 0.338895C18.79 0.117383 18.3961 0 17.9941 0C17.5921 0 17.1981 0.117383 16.8567 0.338895C16.5152 0.560407 16.2398 0.877223 16.0616 1.25357Z" fill="#FBBC05"/>
</g>
<defs>
<clipPath id="clip0_381_205">
<rect width="18" height="36" fill="white"/>
</clipPath>
</defs>
</svg>
