<svg width="35" height="35" viewBox="0 0 35 35" fill="none" xmlns="http://www.w3.org/2000/svg">
<path d="M15.6155 1.21875L11.3431 10.2707L1.78251 11.7277C1.39678 11.7887 1.035 11.9608 0.73786 12.2248C0.440724 12.4889 0.22003 12.8343 0.100614 13.2222C-0.0188025 13.6101 -0.0322014 14.0251 0.0619246 14.4205C0.156051 14.8159 0.353966 15.176 0.633399 15.4604L7.55103 22.5007L5.9147 32.4456C5.84909 32.8475 5.89233 33.2605 6.03953 33.638C6.18673 34.0155 6.43203 34.3426 6.74775 34.5822C7.06347 34.8219 7.43703 34.9646 7.82628 34.9942C8.21553 35.0239 8.60497 34.9393 8.95064 34.75L17.5046 30.0548L26.0586 34.75C26.4042 34.9393 26.7937 35.0239 27.1829 34.9942C27.5722 34.9646 27.9457 34.8219 28.2614 34.5822C28.5772 34.3426 28.8225 34.0155 28.9697 33.638C29.1169 33.2605 29.1601 32.8475 29.0945 32.4456L27.449 22.4983L34.3666 15.458C34.646 15.1736 34.844 14.8135 34.9381 14.4181C35.0322 14.0227 35.0188 13.6076 34.8994 13.2198C34.78 12.8319 34.5593 12.4865 34.2621 12.2224C33.965 11.9584 33.6032 11.7863 33.2175 11.7253L23.6569 10.2683L19.373 1.21875C19.1998 0.852856 18.9321 0.54484 18.6001 0.329481C18.2681 0.114123 17.8851 0 17.4943 0C17.1034 0 16.7204 0.114123 16.3884 0.329481C16.0564 0.54484 15.7887 0.852856 15.6155 1.21875Z" fill="#FBBC05"/>
</svg>
