<svg width="351" height="62" viewBox="0 0 351 62" fill="none" xmlns="http://www.w3.org/2000/svg">
<g filter="url(#filter0_dd_77_76)">
<path d="M3 23C3 13.5719 3 8.85786 5.92893 5.92893C8.85786 3 13.5719 3 23 3H328C337.428 3 342.142 3 345.071 5.92893C348 8.85786 348 13.5719 348 23V37C348 46.4281 348 51.1421 345.071 54.0711C342.142 57 337.428 57 328 57H23C13.5719 57 8.85786 57 5.92893 54.0711C3 51.1421 3 46.4281 3 37V23Z" fill="white"/>
<rect x="50.5" y="3" width="250" height="54" rx="10" fill="white"/>
<rect width="24" height="24" transform="translate(65.5 18)" fill="white"/>
<path fill-rule="evenodd" clip-rule="evenodd" d="M88.54 30.2615C88.54 29.446 88.4668 28.6619 88.3309 27.9092H77.5V32.3576H83.6891C83.4225 33.7951 82.6123 35.013 81.3943 35.8285V38.714H85.1109C87.2855 36.7119 88.54 33.7637 88.54 30.2615Z" fill="#4285F4"/>
<path fill-rule="evenodd" clip-rule="evenodd" d="M77.4999 41.4998C80.6049 41.4998 83.2081 40.47 85.1108 38.7137L81.3942 35.8282C80.3645 36.5182 79.0472 36.9259 77.4999 36.9259C74.5047 36.9259 71.9695 34.903 71.0651 32.1848H67.2231V35.1644C69.1154 38.9228 73.0045 41.4998 77.4999 41.4998Z" fill="#34A853"/>
<path fill-rule="evenodd" clip-rule="evenodd" d="M71.0652 32.185C70.8352 31.495 70.7045 30.7579 70.7045 30C70.7045 29.242 70.8352 28.505 71.0652 27.815V24.8354H67.2232C66.4443 26.3879 66 28.1443 66 30C66 31.8557 66.4443 33.612 67.2232 35.1645L71.0652 32.185Z" fill="#FBBC05"/>
<path fill-rule="evenodd" clip-rule="evenodd" d="M77.4999 23.0739C79.1883 23.0739 80.7042 23.6541 81.8961 24.7936L85.1945 21.4952C83.2029 19.6395 80.5997 18.5 77.4999 18.5C73.0045 18.5 69.1154 21.077 67.2231 24.8355L71.0651 27.815C71.9695 25.0968 74.5047 23.0739 77.4999 23.0739Z" fill="#EA4335"/>
<path d="M108.562 21.7812V36H106.111V21.7812H108.562ZM113.709 27.6895V36H111.355V25.4336H113.572L113.709 27.6895ZM113.289 30.3262L112.527 30.3164C112.534 29.5677 112.638 28.8809 112.84 28.2559C113.048 27.6309 113.335 27.0938 113.699 26.6445C114.07 26.1953 114.513 25.8503 115.027 25.6094C115.542 25.362 116.115 25.2383 116.746 25.2383C117.254 25.2383 117.713 25.3099 118.123 25.4531C118.54 25.5898 118.895 25.8145 119.188 26.127C119.487 26.4395 119.715 26.8464 119.871 27.3477C120.027 27.8424 120.105 28.4512 120.105 29.1738V36H117.742V29.1641C117.742 28.6562 117.667 28.2559 117.518 27.9629C117.374 27.6634 117.163 27.4518 116.883 27.3281C116.609 27.1979 116.268 27.1328 115.857 27.1328C115.454 27.1328 115.092 27.2174 114.773 27.3867C114.454 27.556 114.184 27.7871 113.963 28.0801C113.748 28.373 113.582 28.7116 113.465 29.0957C113.348 29.4798 113.289 29.89 113.289 30.3262ZM129.275 25.4336H131.414V35.707C131.414 36.6576 131.212 37.4648 130.809 38.1289C130.405 38.793 129.842 39.2975 129.119 39.6426C128.396 39.9941 127.56 40.1699 126.609 40.1699C126.206 40.1699 125.757 40.1113 125.262 39.9941C124.773 39.877 124.298 39.6882 123.836 39.4277C123.38 39.1738 122.999 38.8385 122.693 38.4219L123.797 37.0352C124.174 37.4844 124.591 37.8132 125.047 38.0215C125.503 38.2298 125.981 38.334 126.482 38.334C127.023 38.334 127.482 38.2331 127.859 38.0312C128.243 37.8359 128.54 37.5462 128.748 37.1621C128.956 36.778 129.061 36.3092 129.061 35.7559V27.8262L129.275 25.4336ZM122.098 30.834V30.6289C122.098 29.8281 122.195 29.099 122.391 28.4414C122.586 27.7773 122.866 27.2077 123.23 26.7324C123.595 26.2507 124.038 25.8828 124.559 25.6289C125.079 25.3685 125.669 25.2383 126.326 25.2383C127.01 25.2383 127.592 25.362 128.074 25.6094C128.562 25.8568 128.969 26.2116 129.295 26.6738C129.62 27.1296 129.874 27.6764 130.057 28.3145C130.245 28.946 130.385 29.6491 130.477 30.4238V31.0781C130.392 31.8333 130.249 32.5234 130.047 33.1484C129.845 33.7734 129.578 34.3138 129.246 34.7695C128.914 35.2253 128.504 35.5768 128.016 35.8242C127.534 36.0716 126.964 36.1953 126.307 36.1953C125.662 36.1953 125.079 36.0618 124.559 35.7949C124.044 35.528 123.602 35.1536 123.23 34.6719C122.866 34.1901 122.586 33.6237 122.391 32.9727C122.195 32.3151 122.098 31.6022 122.098 30.834ZM124.451 30.6289V30.834C124.451 31.3158 124.497 31.765 124.588 32.1816C124.686 32.5983 124.832 32.9661 125.027 33.2852C125.229 33.5977 125.483 33.8451 125.789 34.0273C126.102 34.2031 126.469 34.291 126.893 34.291C127.446 34.291 127.898 34.1738 128.25 33.9395C128.608 33.7051 128.882 33.3893 129.07 32.9922C129.266 32.5885 129.402 32.1393 129.48 31.6445V29.877C129.441 29.4928 129.36 29.1348 129.236 28.8027C129.119 28.4707 128.96 28.181 128.758 27.9336C128.556 27.6797 128.302 27.4844 127.996 27.3477C127.69 27.2044 127.329 27.1328 126.912 27.1328C126.489 27.1328 126.121 27.224 125.809 27.4062C125.496 27.5885 125.239 27.8392 125.037 28.1582C124.842 28.4772 124.695 28.8483 124.598 29.2715C124.5 29.6947 124.451 30.1471 124.451 30.6289ZM136.219 27.4453V36H133.865V25.4336H136.111L136.219 27.4453ZM139.451 25.3652L139.432 27.5527C139.288 27.5267 139.132 27.5072 138.963 27.4941C138.8 27.4811 138.637 27.4746 138.475 27.4746C138.071 27.4746 137.716 27.5332 137.41 27.6504C137.104 27.7611 136.847 27.9238 136.639 28.1387C136.437 28.347 136.281 28.6009 136.17 28.9004C136.059 29.1999 135.994 29.5352 135.975 29.9062L135.438 29.9453C135.438 29.2812 135.503 28.666 135.633 28.0996C135.763 27.5332 135.958 27.0352 136.219 26.6055C136.486 26.1758 136.818 25.8405 137.215 25.5996C137.618 25.3587 138.084 25.2383 138.611 25.2383C138.755 25.2383 138.908 25.2513 139.07 25.2773C139.24 25.3034 139.367 25.3327 139.451 25.3652ZM145.389 36.1953C144.607 36.1953 143.901 36.0684 143.27 35.8145C142.645 35.554 142.111 35.1927 141.668 34.7305C141.232 34.2682 140.896 33.7246 140.662 33.0996C140.428 32.4746 140.311 31.8008 140.311 31.0781V30.6875C140.311 29.8607 140.431 29.112 140.672 28.4414C140.913 27.7708 141.248 27.1979 141.678 26.7227C142.107 26.2409 142.615 25.873 143.201 25.6191C143.787 25.3652 144.422 25.2383 145.105 25.2383C145.861 25.2383 146.521 25.3652 147.088 25.6191C147.654 25.873 148.123 26.2311 148.494 26.6934C148.872 27.1491 149.152 27.6927 149.334 28.3242C149.523 28.9557 149.617 29.6523 149.617 30.4141V31.4199H141.453V29.7305H147.293V29.5449C147.28 29.1217 147.195 28.7246 147.039 28.3535C146.889 27.9824 146.658 27.6829 146.346 27.4551C146.033 27.2272 145.617 27.1133 145.096 27.1133C144.705 27.1133 144.357 27.1979 144.051 27.3672C143.751 27.5299 143.501 27.7676 143.299 28.0801C143.097 28.3926 142.941 28.7702 142.83 29.2129C142.726 29.6491 142.674 30.1406 142.674 30.6875V31.0781C142.674 31.5404 142.736 31.9701 142.859 32.3672C142.99 32.7578 143.178 33.0996 143.426 33.3926C143.673 33.6855 143.973 33.9167 144.324 34.0859C144.676 34.2487 145.076 34.3301 145.525 34.3301C146.092 34.3301 146.596 34.2161 147.039 33.9883C147.482 33.7604 147.866 33.4382 148.191 33.0215L149.432 34.2227C149.204 34.5547 148.908 34.8737 148.543 35.1797C148.178 35.4792 147.732 35.7233 147.205 35.9121C146.684 36.1009 146.079 36.1953 145.389 36.1953ZM157.381 33.1387C157.381 32.9043 157.322 32.6927 157.205 32.5039C157.088 32.3086 156.863 32.1328 156.531 31.9766C156.206 31.8203 155.724 31.6771 155.086 31.5469C154.526 31.4232 154.012 31.2767 153.543 31.1074C153.081 30.9316 152.684 30.7201 152.352 30.4727C152.02 30.2253 151.762 29.9323 151.58 29.5938C151.398 29.2552 151.307 28.8646 151.307 28.4219C151.307 27.9922 151.401 27.5853 151.59 27.2012C151.779 26.8171 152.049 26.4785 152.4 26.1855C152.752 25.8926 153.178 25.6615 153.68 25.4922C154.188 25.3229 154.754 25.2383 155.379 25.2383C156.264 25.2383 157.023 25.388 157.654 25.6875C158.292 25.9805 158.781 26.3809 159.119 26.8887C159.458 27.39 159.627 27.9564 159.627 28.5879H157.273C157.273 28.3079 157.202 28.0475 157.059 27.8066C156.922 27.5592 156.714 27.3607 156.434 27.2109C156.154 27.0547 155.802 26.9766 155.379 26.9766C154.975 26.9766 154.64 27.0417 154.373 27.1719C154.113 27.2956 153.917 27.4583 153.787 27.6602C153.663 27.862 153.602 28.0833 153.602 28.3242C153.602 28.5 153.634 28.6595 153.699 28.8027C153.771 28.9395 153.888 29.0664 154.051 29.1836C154.214 29.2943 154.435 29.3984 154.715 29.4961C155.001 29.5938 155.359 29.6882 155.789 29.7793C156.596 29.9486 157.29 30.1667 157.869 30.4336C158.455 30.694 158.904 31.0326 159.217 31.4492C159.529 31.8594 159.686 32.3802 159.686 33.0117C159.686 33.4805 159.585 33.9102 159.383 34.3008C159.188 34.6849 158.901 35.0202 158.523 35.3066C158.146 35.5866 157.693 35.8047 157.166 35.9609C156.645 36.1172 156.059 36.1953 155.408 36.1953C154.451 36.1953 153.641 36.026 152.977 35.6875C152.312 35.3424 151.808 34.903 151.463 34.3691C151.124 33.8288 150.955 33.2689 150.955 32.6895H153.23C153.257 33.1257 153.377 33.474 153.592 33.7344C153.813 33.9883 154.087 34.1738 154.412 34.291C154.744 34.4017 155.086 34.457 155.438 34.457C155.861 34.457 156.215 34.4017 156.502 34.291C156.788 34.1738 157.007 34.0176 157.156 33.8223C157.306 33.6204 157.381 33.3926 157.381 33.1387ZM167.703 33.8809V28.8418C167.703 28.4642 167.635 28.1387 167.498 27.8652C167.361 27.5918 167.153 27.3802 166.873 27.2305C166.6 27.0807 166.255 27.0059 165.838 27.0059C165.454 27.0059 165.122 27.071 164.842 27.2012C164.562 27.3314 164.344 27.5072 164.188 27.7285C164.031 27.9499 163.953 28.2005 163.953 28.4805H161.609C161.609 28.0638 161.71 27.6602 161.912 27.2695C162.114 26.8789 162.407 26.5306 162.791 26.2246C163.175 25.9186 163.634 25.6777 164.168 25.502C164.702 25.3262 165.301 25.2383 165.965 25.2383C166.759 25.2383 167.462 25.3717 168.074 25.6387C168.693 25.9056 169.178 26.3092 169.529 26.8496C169.887 27.3835 170.066 28.054 170.066 28.8613V33.5586C170.066 34.0404 170.099 34.4733 170.164 34.8574C170.236 35.235 170.337 35.5638 170.467 35.8438V36H168.055C167.944 35.7461 167.856 35.4238 167.791 35.0332C167.732 34.6361 167.703 34.252 167.703 33.8809ZM168.045 29.5742L168.064 31.0293H166.375C165.939 31.0293 165.555 31.0716 165.223 31.1562C164.891 31.2344 164.614 31.3516 164.393 31.5078C164.171 31.6641 164.005 31.8529 163.895 32.0742C163.784 32.2956 163.729 32.5462 163.729 32.8262C163.729 33.1061 163.794 33.3633 163.924 33.5977C164.054 33.8255 164.243 34.0046 164.49 34.1348C164.744 34.265 165.05 34.3301 165.408 34.3301C165.89 34.3301 166.31 34.2324 166.668 34.0371C167.033 33.8353 167.319 33.5911 167.527 33.3047C167.736 33.0117 167.846 32.735 167.859 32.4746L168.621 33.5195C168.543 33.7865 168.41 34.0729 168.221 34.3789C168.032 34.6849 167.785 34.9779 167.479 35.2578C167.179 35.5312 166.818 35.7559 166.395 35.9316C165.978 36.1074 165.496 36.1953 164.949 36.1953C164.259 36.1953 163.644 36.0586 163.104 35.7852C162.563 35.5052 162.14 35.1309 161.834 34.6621C161.528 34.1868 161.375 33.6497 161.375 33.0508C161.375 32.4909 161.479 31.9961 161.688 31.5664C161.902 31.1302 162.215 30.7656 162.625 30.4727C163.042 30.1797 163.549 29.9583 164.148 29.8086C164.747 29.6523 165.431 29.5742 166.199 29.5742H168.045ZM174.891 27.4453V36H172.537V25.4336H174.783L174.891 27.4453ZM178.123 25.3652L178.104 27.5527C177.96 27.5267 177.804 27.5072 177.635 27.4941C177.472 27.4811 177.309 27.4746 177.146 27.4746C176.743 27.4746 176.388 27.5332 176.082 27.6504C175.776 27.7611 175.519 27.9238 175.311 28.1387C175.109 28.347 174.952 28.6009 174.842 28.9004C174.731 29.1999 174.666 29.5352 174.646 29.9062L174.109 29.9453C174.109 29.2812 174.174 28.666 174.305 28.0996C174.435 27.5332 174.63 27.0352 174.891 26.6055C175.158 26.1758 175.49 25.8405 175.887 25.5996C176.29 25.3587 176.756 25.2383 177.283 25.2383C177.426 25.2383 177.579 25.2513 177.742 25.2773C177.911 25.3034 178.038 25.3327 178.123 25.3652ZM188.895 34.3203C189.279 34.3203 189.624 34.2454 189.93 34.0957C190.242 33.9395 190.493 33.7246 190.682 33.4512C190.877 33.1777 190.984 32.862 191.004 32.5039H193.221C193.208 33.1875 193.006 33.8092 192.615 34.3691C192.225 34.929 191.707 35.375 191.062 35.707C190.418 36.0326 189.705 36.1953 188.924 36.1953C188.117 36.1953 187.413 36.0586 186.814 35.7852C186.215 35.5052 185.717 35.1211 185.32 34.6328C184.923 34.1445 184.624 33.5814 184.422 32.9434C184.227 32.3053 184.129 31.6217 184.129 30.8926V30.5508C184.129 29.8216 184.227 29.138 184.422 28.5C184.624 27.8555 184.923 27.2891 185.32 26.8008C185.717 26.3125 186.215 25.9316 186.814 25.6582C187.413 25.3783 188.113 25.2383 188.914 25.2383C189.76 25.2383 190.503 25.4076 191.141 25.7461C191.779 26.0781 192.28 26.5436 192.645 27.1426C193.016 27.735 193.208 28.4251 193.221 29.2129H191.004C190.984 28.8223 190.887 28.4707 190.711 28.1582C190.542 27.8392 190.301 27.5853 189.988 27.3965C189.682 27.2077 189.314 27.1133 188.885 27.1133C188.41 27.1133 188.016 27.2109 187.703 27.4062C187.391 27.5951 187.146 27.8555 186.971 28.1875C186.795 28.513 186.668 28.8809 186.59 29.291C186.518 29.6947 186.482 30.1146 186.482 30.5508V30.8926C186.482 31.3288 186.518 31.752 186.59 32.1621C186.661 32.5723 186.785 32.9401 186.961 33.2656C187.143 33.5846 187.391 33.8418 187.703 34.0371C188.016 34.2259 188.413 34.3203 188.895 34.3203ZM194.578 30.834V30.6094C194.578 29.8477 194.689 29.1413 194.91 28.4902C195.132 27.8327 195.451 27.263 195.867 26.7812C196.29 26.293 196.805 25.9154 197.41 25.6484C198.022 25.375 198.712 25.2383 199.48 25.2383C200.255 25.2383 200.945 25.375 201.551 25.6484C202.163 25.9154 202.68 26.293 203.104 26.7812C203.527 27.263 203.849 27.8327 204.07 28.4902C204.292 29.1413 204.402 29.8477 204.402 30.6094V30.834C204.402 31.5957 204.292 32.3021 204.07 32.9531C203.849 33.6042 203.527 34.1738 203.104 34.6621C202.68 35.1439 202.166 35.5215 201.561 35.7949C200.955 36.0618 200.268 36.1953 199.5 36.1953C198.725 36.1953 198.032 36.0618 197.42 35.7949C196.814 35.5215 196.3 35.1439 195.877 34.6621C195.454 34.1738 195.132 33.6042 194.91 32.9531C194.689 32.3021 194.578 31.5957 194.578 30.834ZM196.932 30.6094V30.834C196.932 31.3092 196.98 31.7585 197.078 32.1816C197.176 32.6048 197.329 32.9759 197.537 33.2949C197.745 33.6139 198.012 33.8646 198.338 34.0469C198.663 34.2292 199.051 34.3203 199.5 34.3203C199.936 34.3203 200.314 34.2292 200.633 34.0469C200.958 33.8646 201.225 33.6139 201.434 33.2949C201.642 32.9759 201.795 32.6048 201.893 32.1816C201.997 31.7585 202.049 31.3092 202.049 30.834V30.6094C202.049 30.1406 201.997 29.6979 201.893 29.2812C201.795 28.8581 201.639 28.4837 201.424 28.1582C201.215 27.8327 200.949 27.5788 200.623 27.3965C200.304 27.2077 199.923 27.1133 199.48 27.1133C199.038 27.1133 198.654 27.2077 198.328 27.3965C198.009 27.5788 197.745 27.8327 197.537 28.1582C197.329 28.4837 197.176 28.8581 197.078 29.2812C196.98 29.6979 196.932 30.1406 196.932 30.6094ZM208.709 27.6895V36H206.355V25.4336H208.572L208.709 27.6895ZM208.289 30.3262L207.527 30.3164C207.534 29.5677 207.638 28.8809 207.84 28.2559C208.048 27.6309 208.335 27.0938 208.699 26.6445C209.07 26.1953 209.513 25.8503 210.027 25.6094C210.542 25.362 211.115 25.2383 211.746 25.2383C212.254 25.2383 212.713 25.3099 213.123 25.4531C213.54 25.5898 213.895 25.8145 214.188 26.127C214.487 26.4395 214.715 26.8464 214.871 27.3477C215.027 27.8424 215.105 28.4512 215.105 29.1738V36H212.742V29.1641C212.742 28.6562 212.667 28.2559 212.518 27.9629C212.374 27.6634 212.163 27.4518 211.883 27.3281C211.609 27.1979 211.268 27.1328 210.857 27.1328C210.454 27.1328 210.092 27.2174 209.773 27.3867C209.454 27.556 209.184 27.7871 208.963 28.0801C208.748 28.373 208.582 28.7116 208.465 29.0957C208.348 29.4798 208.289 29.89 208.289 30.3262ZM233.641 28.7344V34.1641C233.439 34.431 233.123 34.724 232.693 35.043C232.27 35.3555 231.707 35.6257 231.004 35.8535C230.301 36.0814 229.425 36.1953 228.377 36.1953C227.485 36.1953 226.668 36.0456 225.926 35.7461C225.184 35.4401 224.542 34.9941 224.002 34.4082C223.468 33.8223 223.055 33.1094 222.762 32.2695C222.469 31.4232 222.322 30.4596 222.322 29.3789V28.3926C222.322 27.3184 222.456 26.3613 222.723 25.5215C222.996 24.6751 223.387 23.959 223.895 23.373C224.402 22.7871 225.014 22.3444 225.73 22.0449C226.453 21.7389 227.27 21.5859 228.182 21.5859C229.347 21.5859 230.311 21.7812 231.072 22.1719C231.84 22.556 232.433 23.0898 232.85 23.7734C233.266 24.457 233.53 25.2383 233.641 26.1172H231.238C231.16 25.6224 231.007 25.1797 230.779 24.7891C230.558 24.3984 230.239 24.0924 229.822 23.8711C229.412 23.6432 228.878 23.5293 228.221 23.5293C227.654 23.5293 227.156 23.6367 226.727 23.8516C226.297 24.0664 225.939 24.3822 225.652 24.7988C225.372 25.2155 225.161 25.7233 225.018 26.3223C224.874 26.9212 224.803 27.6048 224.803 28.373V29.3789C224.803 30.1602 224.884 30.8535 225.047 31.459C225.216 32.0645 225.457 32.5755 225.77 32.9922C226.089 33.4089 226.476 33.7246 226.932 33.9395C227.387 34.1478 227.902 34.252 228.475 34.252C229.035 34.252 229.493 34.2064 229.852 34.1152C230.21 34.0176 230.493 33.9036 230.701 33.7734C230.916 33.6367 231.082 33.5065 231.199 33.3828V30.5605H228.24V28.7344H233.641ZM235.672 30.834V30.6094C235.672 29.8477 235.783 29.1413 236.004 28.4902C236.225 27.8327 236.544 27.263 236.961 26.7812C237.384 26.293 237.898 25.9154 238.504 25.6484C239.116 25.375 239.806 25.2383 240.574 25.2383C241.349 25.2383 242.039 25.375 242.645 25.6484C243.257 25.9154 243.774 26.293 244.197 26.7812C244.62 27.263 244.943 27.8327 245.164 28.4902C245.385 29.1413 245.496 29.8477 245.496 30.6094V30.834C245.496 31.5957 245.385 32.3021 245.164 32.9531C244.943 33.6042 244.62 34.1738 244.197 34.6621C243.774 35.1439 243.26 35.5215 242.654 35.7949C242.049 36.0618 241.362 36.1953 240.594 36.1953C239.819 36.1953 239.126 36.0618 238.514 35.7949C237.908 35.5215 237.394 35.1439 236.971 34.6621C236.548 34.1738 236.225 33.6042 236.004 32.9531C235.783 32.3021 235.672 31.5957 235.672 30.834ZM238.025 30.6094V30.834C238.025 31.3092 238.074 31.7585 238.172 32.1816C238.27 32.6048 238.423 32.9759 238.631 33.2949C238.839 33.6139 239.106 33.8646 239.432 34.0469C239.757 34.2292 240.145 34.3203 240.594 34.3203C241.03 34.3203 241.408 34.2292 241.727 34.0469C242.052 33.8646 242.319 33.6139 242.527 33.2949C242.736 32.9759 242.889 32.6048 242.986 32.1816C243.09 31.7585 243.143 31.3092 243.143 30.834V30.6094C243.143 30.1406 243.09 29.6979 242.986 29.2812C242.889 28.8581 242.732 28.4837 242.518 28.1582C242.309 27.8327 242.042 27.5788 241.717 27.3965C241.398 27.2077 241.017 27.1133 240.574 27.1133C240.132 27.1133 239.747 27.2077 239.422 27.3965C239.103 27.5788 238.839 27.8327 238.631 28.1582C238.423 28.4837 238.27 28.8581 238.172 29.2812C238.074 29.6979 238.025 30.1406 238.025 30.6094ZM247.02 30.834V30.6094C247.02 29.8477 247.13 29.1413 247.352 28.4902C247.573 27.8327 247.892 27.263 248.309 26.7812C248.732 26.293 249.246 25.9154 249.852 25.6484C250.464 25.375 251.154 25.2383 251.922 25.2383C252.697 25.2383 253.387 25.375 253.992 25.6484C254.604 25.9154 255.122 26.293 255.545 26.7812C255.968 27.263 256.29 27.8327 256.512 28.4902C256.733 29.1413 256.844 29.8477 256.844 30.6094V30.834C256.844 31.5957 256.733 32.3021 256.512 32.9531C256.29 33.6042 255.968 34.1738 255.545 34.6621C255.122 35.1439 254.607 35.5215 254.002 35.7949C253.396 36.0618 252.71 36.1953 251.941 36.1953C251.167 36.1953 250.473 36.0618 249.861 35.7949C249.256 35.5215 248.742 35.1439 248.318 34.6621C247.895 34.1738 247.573 33.6042 247.352 32.9531C247.13 32.3021 247.02 31.5957 247.02 30.834ZM249.373 30.6094V30.834C249.373 31.3092 249.422 31.7585 249.52 32.1816C249.617 32.6048 249.77 32.9759 249.979 33.2949C250.187 33.6139 250.454 33.8646 250.779 34.0469C251.105 34.2292 251.492 34.3203 251.941 34.3203C252.378 34.3203 252.755 34.2292 253.074 34.0469C253.4 33.8646 253.667 33.6139 253.875 33.2949C254.083 32.9759 254.236 32.6048 254.334 32.1816C254.438 31.7585 254.49 31.3092 254.49 30.834V30.6094C254.49 30.1406 254.438 29.6979 254.334 29.2812C254.236 28.8581 254.08 28.4837 253.865 28.1582C253.657 27.8327 253.39 27.5788 253.064 27.3965C252.745 27.2077 252.365 27.1133 251.922 27.1133C251.479 27.1133 251.095 27.2077 250.77 27.3965C250.451 27.5788 250.187 27.8327 249.979 28.1582C249.77 28.4837 249.617 28.8581 249.52 29.2812C249.422 29.6979 249.373 30.1406 249.373 30.6094ZM265.584 25.4336H267.723V35.707C267.723 36.6576 267.521 37.4648 267.117 38.1289C266.714 38.793 266.15 39.2975 265.428 39.6426C264.705 39.9941 263.868 40.1699 262.918 40.1699C262.514 40.1699 262.065 40.1113 261.57 39.9941C261.082 39.877 260.607 39.6882 260.145 39.4277C259.689 39.1738 259.308 38.8385 259.002 38.4219L260.105 37.0352C260.483 37.4844 260.9 37.8132 261.355 38.0215C261.811 38.2298 262.29 38.334 262.791 38.334C263.331 38.334 263.79 38.2331 264.168 38.0312C264.552 37.8359 264.848 37.5462 265.057 37.1621C265.265 36.778 265.369 36.3092 265.369 35.7559V27.8262L265.584 25.4336ZM258.406 30.834V30.6289C258.406 29.8281 258.504 29.099 258.699 28.4414C258.895 27.7773 259.174 27.2077 259.539 26.7324C259.904 26.2507 260.346 25.8828 260.867 25.6289C261.388 25.3685 261.977 25.2383 262.635 25.2383C263.318 25.2383 263.901 25.362 264.383 25.6094C264.871 25.8568 265.278 26.2116 265.604 26.6738C265.929 27.1296 266.183 27.6764 266.365 28.3145C266.554 28.946 266.694 29.6491 266.785 30.4238V31.0781C266.701 31.8333 266.557 32.5234 266.355 33.1484C266.154 33.7734 265.887 34.3138 265.555 34.7695C265.223 35.2253 264.812 35.5768 264.324 35.8242C263.842 36.0716 263.273 36.1953 262.615 36.1953C261.971 36.1953 261.388 36.0618 260.867 35.7949C260.353 35.528 259.91 35.1536 259.539 34.6719C259.174 34.1901 258.895 33.6237 258.699 32.9727C258.504 32.3151 258.406 31.6022 258.406 30.834ZM260.76 30.6289V30.834C260.76 31.3158 260.805 31.765 260.896 32.1816C260.994 32.5983 261.141 32.9661 261.336 33.2852C261.538 33.5977 261.792 33.8451 262.098 34.0273C262.41 34.2031 262.778 34.291 263.201 34.291C263.755 34.291 264.207 34.1738 264.559 33.9395C264.917 33.7051 265.19 33.3893 265.379 32.9922C265.574 32.5885 265.711 32.1393 265.789 31.6445V29.877C265.75 29.4928 265.669 29.1348 265.545 28.8027C265.428 28.4707 265.268 28.181 265.066 27.9336C264.865 27.6797 264.611 27.4844 264.305 27.3477C263.999 27.2044 263.637 27.1328 263.221 27.1328C262.798 27.1328 262.43 27.224 262.117 27.4062C261.805 27.5885 261.548 27.8392 261.346 28.1582C261.15 28.4772 261.004 28.8483 260.906 29.2715C260.809 29.6947 260.76 30.1471 260.76 30.6289ZM272.684 21V36H270.32V21H272.684ZM279.92 36.1953C279.139 36.1953 278.432 36.0684 277.801 35.8145C277.176 35.554 276.642 35.1927 276.199 34.7305C275.763 34.2682 275.428 33.7246 275.193 33.0996C274.959 32.4746 274.842 31.8008 274.842 31.0781V30.6875C274.842 29.8607 274.962 29.112 275.203 28.4414C275.444 27.7708 275.779 27.1979 276.209 26.7227C276.639 26.2409 277.146 25.873 277.732 25.6191C278.318 25.3652 278.953 25.2383 279.637 25.2383C280.392 25.2383 281.053 25.3652 281.619 25.6191C282.186 25.873 282.654 26.2311 283.025 26.6934C283.403 27.1491 283.683 27.6927 283.865 28.3242C284.054 28.9557 284.148 29.6523 284.148 30.4141V31.4199H275.984V29.7305H281.824V29.5449C281.811 29.1217 281.727 28.7246 281.57 28.3535C281.421 27.9824 281.189 27.6829 280.877 27.4551C280.564 27.2272 280.148 27.1133 279.627 27.1133C279.236 27.1133 278.888 27.1979 278.582 27.3672C278.283 27.5299 278.032 27.7676 277.83 28.0801C277.628 28.3926 277.472 28.7702 277.361 29.2129C277.257 29.6491 277.205 30.1406 277.205 30.6875V31.0781C277.205 31.5404 277.267 31.9701 277.391 32.3672C277.521 32.7578 277.71 33.0996 277.957 33.3926C278.204 33.6855 278.504 33.9167 278.855 34.0859C279.207 34.2487 279.607 34.3301 280.057 34.3301C280.623 34.3301 281.128 34.2161 281.57 33.9883C282.013 33.7604 282.397 33.4382 282.723 33.0215L283.963 34.2227C283.735 34.5547 283.439 34.8737 283.074 35.1797C282.71 35.4792 282.264 35.7233 281.736 35.9121C281.215 36.1009 280.61 36.1953 279.92 36.1953Z" fill="black"/>
</g>
<defs>
<filter id="filter0_dd_77_76" x="0" y="0" width="351" height="62" filterUnits="userSpaceOnUse" color-interpolation-filters="sRGB">
<feFlood flood-opacity="0" result="BackgroundImageFix"/>
<feColorMatrix in="SourceAlpha" type="matrix" values="0 0 0 0 0 0 0 0 0 0 0 0 0 0 0 0 0 0 127 0" result="hardAlpha"/>
<feOffset dy="2"/>
<feGaussianBlur stdDeviation="1.5"/>
<feColorMatrix type="matrix" values="0 0 0 0 0 0 0 0 0 0 0 0 0 0 0 0 0 0 0.168 0"/>
<feBlend mode="normal" in2="BackgroundImageFix" result="effect1_dropShadow_77_76"/>
<feColorMatrix in="SourceAlpha" type="matrix" values="0 0 0 0 0 0 0 0 0 0 0 0 0 0 0 0 0 0 127 0" result="hardAlpha"/>
<feOffset/>
<feGaussianBlur stdDeviation="1.5"/>
<feColorMatrix type="matrix" values="0 0 0 0 0 0 0 0 0 0 0 0 0 0 0 0 0 0 0.084 0"/>
<feBlend mode="normal" in2="effect1_dropShadow_77_76" result="effect2_dropShadow_77_76"/>
<feBlend mode="normal" in="SourceGraphic" in2="effect2_dropShadow_77_76" result="shape"/>
</filter>
</defs>
</svg>
